<svg xmlns="http://www.w3.org/2000/svg" viewBox="0 0 47.97 47.84"><defs><style>.cls-1{fill:#58e9e4;}</style></defs><title>Behance</title><g id="Capa_2" data-name="Capa 2"><g id="Capa_1-2" data-name="Capa 1"><path class="cls-1" d="M24,47.83A23.93,23.93,0,1,1,25.88.06,23.85,23.85,0,0,1,47.95,25.22,23.64,23.64,0,0,1,24,47.83ZM11.8,16.14v15.6c2.4,0,4.71,0,7,0a12.07,12.07,0,0,0,3-.5,3.76,3.76,0,0,0,2.38-3.36,4.3,4.3,0,0,0-2.43-4.22,4.11,4.11,0,0,0,1.71-4.15,3.7,3.7,0,0,0-3.23-3.33C17.47,16.09,14.68,16.14,11.8,16.14ZM35.69,28.8a2.44,2.44,0,0,0-3.32-.06,2.5,2.5,0,0,1-2.65.45A2.38,2.38,0,0,1,28,26.93H36a5,5,0,0,0-3-6.33c-3.12-1.1-6.12-.54-7.76,2.61A5.81,5.81,0,0,0,27.53,31C30.41,32.53,34.6,31.55,35.69,28.8ZM34.23,16.94H26.65v2h7.58Z"/><path class="cls-1" d="M14.89,28.86V25.27c1.55,0,3.1-.07,4.64,0a1.58,1.58,0,0,1,1.4,1.84,1.67,1.67,0,0,1-1.71,1.72C17.83,28.88,16.43,28.86,14.89,28.86Z"/><path class="cls-1" d="M14.94,19h3.7a1.5,1.5,0,0,1,1.72,1.53,1.81,1.81,0,0,1-1.67,2.05c-1.23.06-2.46,0-3.74,0Z"/><path class="cls-1" d="M33,24.75h-5a2.46,2.46,0,0,1,2.4-2.37A2.63,2.63,0,0,1,33,24.75Z"/></g></g></svg>