<svg xmlns="http://www.w3.org/2000/svg" viewBox="0 0 47.98 47.82"><defs><style>.cls-1{fill:#58e9e4;}</style></defs><title>Correo</title><g id="Capa_2" data-name="Capa 2"><g id="Capa_1-2" data-name="Capa 1"><path class="cls-1" d="M25.65,0A23.89,23.89,0,0,0,0,23.66C-.16,37,10.83,48.18,24,47.81,37.6,48.14,47.57,37,48,24.95A23.91,23.91,0,0,0,25.65,0ZM12.14,14.61H35.85a1.4,1.4,0,0,1,.64.16c-1.61,1.1-3.24,2.32-4.83,3.5a67.83,67.83,0,0,1-7.49,5.13.37.37,0,0,1-.36,0c-3.51-1.91-10.3-7.1-12.29-8.64A1.4,1.4,0,0,1,12.14,14.61ZM37.26,31.8a1.41,1.41,0,0,1-1.41,1.41H12.14a1.41,1.41,0,0,1-1.41-1.41V16a1.4,1.4,0,0,1,.22-.76c1.92,1.49,9.31,7.16,12.87,9l.17.09.17-.09a63.46,63.46,0,0,0,7.94-5.38c1.62-1.21,3.3-2.46,4.94-3.58a1.4,1.4,0,0,1,.21.73Z"/></g></g></svg>