<svg xmlns="http://www.w3.org/2000/svg" viewBox="0 0 47.97 47.9"><defs><style>.cls-1{fill:#58e9e4;}</style></defs><title>LinkedIn_1</title><g id="Capa_2" data-name="Capa 2"><g id="Capa_1-2" data-name="Capa 1"><path class="cls-1" d="M0,22.08c.32-1.59.57-3.2,1-4.76A22.31,22.31,0,0,1,6.2,7.84a23.53,23.53,0,0,1,9.17-6.29A24.64,24.64,0,0,1,27.22.2,22.11,22.11,0,0,1,37.45,4a23.41,23.41,0,0,1,10.12,15.6,23.56,23.56,0,0,1-2,14.7A22.49,22.49,0,0,1,31.22,46.76C23.4,49.05,16,47.94,9.44,42.91A23.91,23.91,0,0,1,.25,27.48c-.11-.6-.17-1.2-.25-1.8Zm21.2-3.8V31.58h4.24c0-2.57,0-5,0-7.52a2,2,0,0,1,1.79-2.22c1.59-.12,2,.21,2.28,1.8A17,17,0,0,1,29.75,26c0,1.86,0,3.73,0,5.62h4.32c0-.79,0-1.5,0-2.21-.07-2.54-.1-5.08-.26-7.62a3.7,3.7,0,0,0-1.69-3.07,5.9,5.9,0,0,0-6.58.5.84.84,0,0,1-.3.08l-.1-1ZM18.65,31.66V18.33H14.5V31.66Zm-2.22-19.9a2.28,2.28,0,0,0-2.5,2.38,2.41,2.41,0,0,0,2.57,2.43A2.22,2.22,0,0,0,19,14.18,2.22,2.22,0,0,0,16.43,11.76Z"/></g></g></svg>