<svg xmlns="http://www.w3.org/2000/svg" viewBox="0 0 47.98 47.84"><defs><style>.cls-1{fill:#58e9e4;}</style></defs><title>YouTube</title><g id="Capa_2" data-name="Capa 2"><g id="Capa_1-2" data-name="Capa 1"><path class="cls-1" d="M23.94,47.84A23.93,23.93,0,1,1,25.85.05,23.89,23.89,0,0,1,48,25.06,23.67,23.67,0,0,1,23.94,47.84ZM24,15.66c-2.2,0-4.39,0-6.59,0a5,5,0,0,0-4.9,4,36.82,36.82,0,0,0-.22,7.72c.3,3.24,2.86,4.93,5.75,4.88,4.11-.08,8.23,0,12.34,0a5.28,5.28,0,0,0,5.35-5.36q0-2.94,0-5.87a5.29,5.29,0,0,0-5.39-5.33Z"/><path class="cls-1" d="M21.38,27.14V20.81a17.81,17.81,0,0,1,1.86.73q2,1,3.87,2.2a1,1,0,0,1,.19.76c-1.78.92-3.57,1.79-5.37,2.65C21.81,27.22,21.62,27.15,21.38,27.14Z"/></g></g></svg>